<svg xmlns="http://www.w3.org/2000/svg" viewBox="0 0 750 500"><g id="freepik--background-simple--inject-103"><path d="M699,165.07c-17.2-37.75-43.2-70.66-81.61-89C566.08,51.44,505.25,50.83,452,69.67c-30.37,10.75-57.31,28.81-83.48,47.21-23.27,16.36-49.81,41.35-78.58,46.64C251,170.67,159,112.67,90,128.67s-89,106-72,162,83,56,107,102,110,85,216,59,161-41,217-20,133,27,159-61a262.16,262.16,0,0,0,8.52-109C721.22,229.73,713,195.8,699,165.07Z" style="fill:#D4D4D4"></path><path d="M699,165.07c-17.2-37.75-43.2-70.66-81.61-89C566.08,51.44,505.25,50.83,452,69.67c-30.37,10.75-57.31,28.81-83.48,47.21-23.27,16.36-49.81,41.35-78.58,46.64C251,170.67,159,112.67,90,128.67s-89,106-72,162,83,56,107,102,110,85,216,59,161-41,217-20,133,27,159-61a262.16,262.16,0,0,0,8.52-109C721.22,229.73,713,195.8,699,165.07Z" style="fill:#fff;opacity:0.7000000000000001"></path></g><g id="freepik--Gears--inject-103"><path d="M257.29,86.84l12.25,1.4,2.55-11.15-11.42-4a23.39,23.39,0,0,0-1.41-6.65l8.43-8.39-7.13-8.95-9.91,6.26a23.2,23.2,0,0,0-6.42-3.13L243,40.71H231.52l-1.29,11.6a23.46,23.46,0,0,0-6.38,3.16L214,49.23l-7.13,8.94,8.48,8.45a23.07,23.07,0,0,0-1.36,6.62l-11.41,4,2.55,11.15L217.4,87a23.33,23.33,0,0,0,4,4.88l-4.14,11.76,10.3,5,6.7-10.7a25,25,0,0,0,3,.2,23.18,23.18,0,0,0,3.13-.22l6.67,10.67,10.3-5-4.14-11.78A23.52,23.52,0,0,0,257.29,86.84ZM224.61,74.63a12.7,12.7,0,1,1,12.7,12.7A12.7,12.7,0,0,1,224.61,74.63Z" style="fill:none;stroke:#263238;stroke-miterlimit:10"></path><path d="M632.61,257.84l7.89.9,1.64-7.18L634.79,249a15.11,15.11,0,0,0-.91-4.28l5.43-5.42-4.59-5.76-6.39,4a15.13,15.13,0,0,0-4.14-2l-.82-7.44H616l-.82,7.47a15,15,0,0,0-4.12,2l-6.37-4-4.6,5.77,5.47,5.44a14.75,14.75,0,0,0-.88,4.27l-7.35,2.55,1.64,7.19,7.93-.91a15.41,15.41,0,0,0,2.6,3.14l-2.67,7.58,6.64,3.19,4.32-6.89a15.41,15.41,0,0,0,1.94.13,14.89,14.89,0,0,0,2-.14l4.3,6.87,6.64-3.2L630,261A15.21,15.21,0,0,0,632.61,257.84ZM611.55,250a8.19,8.19,0,1,1,8.18,8.18A8.18,8.18,0,0,1,611.55,250Z" style="fill:none;stroke:#263238;stroke-miterlimit:10"></path><path d="M704,91.4l5,.57,1-4.51-4.62-1.61a9.28,9.28,0,0,0-.57-2.69l3.41-3.39-2.88-3.62-4,2.53a9.66,9.66,0,0,0-2.6-1.27l-.51-4.66h-4.63l-.52,4.68a9.6,9.6,0,0,0-2.58,1.29l-4-2.53-2.88,3.62L687,83.22a9.54,9.54,0,0,0-.56,2.68l-4.61,1.61,1,4.51,5-.58a9.4,9.4,0,0,0,1.63,2l-1.67,4.75,4.16,2,2.71-4.33a9.9,9.9,0,0,0,1.23.08,10.52,10.52,0,0,0,1.26-.08l2.7,4.31,4.17-2-1.68-4.76A9.46,9.46,0,0,0,704,91.4Zm-13.22-4.94a5.14,5.14,0,1,1,5.14,5.14A5.14,5.14,0,0,1,690.78,86.46Z" style="fill:none;stroke:#263238;stroke-miterlimit:10"></path><path d="M92.39,300.33l5,.56,1-4.5-4.62-1.61a9.28,9.28,0,0,0-.57-2.69l3.41-3.4-2.88-3.61-4,2.53a9.38,9.38,0,0,0-2.6-1.27l-.51-4.67H82l-.52,4.69a9.72,9.72,0,0,0-2.58,1.28l-4-2.52L72,288.73l3.43,3.42a9.47,9.47,0,0,0-.56,2.68l-4.61,1.6,1,4.51,5-.57a9.4,9.4,0,0,0,1.63,2l-1.67,4.75,4.16,2,2.71-4.33a9.9,9.9,0,0,0,1.23.08,8.79,8.79,0,0,0,1.26-.09l2.7,4.32,4.17-2-1.68-4.76A9.72,9.72,0,0,0,92.39,300.33Zm-13.22-4.94a5.14,5.14,0,1,1,5.14,5.14A5.14,5.14,0,0,1,79.17,295.39Z" style="fill:none;stroke:#263238;stroke-miterlimit:10"></path></g><g id="freepik--Calendar--inject-103"><rect x="576.23" y="95.18" width="74.72" height="76.92" style="fill:none;stroke:#263238;stroke-miterlimit:10"></rect><rect x="576.23" y="95.18" width="74.72" height="7.24" style="fill:#D4D4D4;stroke:#263238;stroke-miterlimit:10"></rect><rect x="580.04" y="129.97" width="7.63" height="7.63" style="fill:none;stroke:#263238;stroke-miterlimit:10"></rect><rect x="591.8" y="129.97" width="7.63" height="7.63" style="fill:none;stroke:#263238;stroke-miterlimit:10"></rect><rect x="603.56" y="129.97" width="7.63" height="7.63" style="fill:none;stroke:#263238;stroke-miterlimit:10"></rect><rect x="615.32" y="129.97" width="7.63" height="7.63" style="fill:none;stroke:#263238;stroke-miterlimit:10"></rect><rect x="627.07" y="129.97" width="7.63" height="7.63" style="fill:none;stroke:#263238;stroke-miterlimit:10"></rect><rect x="638.83" y="129.97" width="7.63" height="7.63" style="fill:none;stroke:#263238;stroke-miterlimit:10"></rect><rect x="580.04" y="141.78" width="7.63" height="7.63" style="fill:none;stroke:#263238;stroke-miterlimit:10"></rect><rect x="591.8" y="141.78" width="7.63" height="7.63" style="fill:#D4D4D4;stroke:#263238;stroke-miterlimit:10"></rect><rect x="603.56" y="141.78" width="7.63" height="7.63" style="fill:none;stroke:#263238;stroke-miterlimit:10"></rect><rect x="615.32" y="141.78" width="7.63" height="7.63" style="fill:none;stroke:#263238;stroke-miterlimit:10"></rect><rect x="627.07" y="141.78" width="7.63" height="7.63" style="fill:none;stroke:#263238;stroke-miterlimit:10"></rect><rect x="638.83" y="141.78" width="7.63" height="7.63" style="fill:none;stroke:#263238;stroke-miterlimit:10"></rect><rect x="580.04" y="153.58" width="7.63" height="7.63" style="fill:none;stroke:#263238;stroke-miterlimit:10"></rect><rect x="591.8" y="153.58" width="7.63" height="7.63" style="fill:none;stroke:#263238;stroke-miterlimit:10"></rect><rect x="603.56" y="153.58" width="7.63" height="7.63" style="fill:none;stroke:#263238;stroke-miterlimit:10"></rect><rect x="615.32" y="153.58" width="7.63" height="7.63" style="fill:#D4D4D4;stroke:#263238;stroke-miterlimit:10"></rect><rect x="627.07" y="153.58" width="7.63" height="7.63" style="fill:none;stroke:#263238;stroke-miterlimit:10"></rect><rect x="638.83" y="153.58" width="7.63" height="7.63" style="fill:none;stroke:#263238;stroke-miterlimit:10"></rect><rect x="580.04" y="108.18" width="67.19" height="14.89" style="fill:none;stroke:#263238;stroke-miterlimit:10"></rect><polyline points="618.05 156.29 619.85 158.42 625.26 150.39" style="fill:none;stroke:#263238;stroke-miterlimit:10"></polyline><polyline points="594.12 144.16 595.76 146.78 601.99 139.41" style="fill:none;stroke:#263238;stroke-miterlimit:10"></polyline></g><g id="freepik--Clock--inject-103"><rect x="321.4" y="79.79" width="13.91" height="27.81" style="fill:#fff;stroke:#263238;stroke-miterlimit:10"></rect><rect x="321.4" y="79.79" width="13.91" height="12.32" style="fill:#263238;stroke:#263238;stroke-miterlimit:10"></rect><rect x="310.15" y="69.19" width="36.42" height="19.87" style="fill:#D4D4D4;stroke:#263238;stroke-miterlimit:10"></rect><line x1="315.15" y1="70.14" x2="315.15" y2="83.74" style="fill:#fff;stroke:#263238;stroke-miterlimit:10"></line><line x1="321.64" y1="76.32" x2="321.64" y2="82.5" style="fill:#fff;stroke:#263238;stroke-miterlimit:10"></line><line x1="327.2" y1="88.06" x2="327.2" y2="73.54" style="fill:#fff;stroke:#263238;stroke-miterlimit:10"></line><rect x="423.67" y="117.08" width="10.18" height="20.37" transform="translate(207.52 -261.43) rotate(43.82)" style="fill:#fff;stroke:#263238;stroke-miterlimit:10"></rect><rect x="427.6" y="118.66" width="10.18" height="9.02" transform="translate(205.78 -265.29) rotate(43.82)" style="fill:#263238;stroke:#263238;stroke-miterlimit:10"></rect><rect x="422.81" y="112.3" width="26.67" height="14.55" transform="translate(204.25 -268.69) rotate(43.82)" style="fill:#D4D4D4;stroke:#263238;stroke-miterlimit:10"></rect><line x1="433.73" y1="108.13" x2="426.84" y2="115.31" style="fill:#fff;stroke:#263238;stroke-miterlimit:10"></line><line x1="434.02" y1="114.68" x2="430.89" y2="117.95" style="fill:#fff;stroke:#263238;stroke-miterlimit:10"></line><line x1="431.01" y1="123.7" x2="438.37" y2="116.03" style="fill:#fff;stroke:#263238;stroke-miterlimit:10"></line><circle cx="328.36" cy="249.3" r="151.43" transform="translate(-80.11 305.2) rotate(-45)" style="fill:#263238;stroke:#263238;stroke-miterlimit:10"></circle><circle cx="328.36" cy="249.3" r="139.01" transform="translate(-80.11 305.2) rotate(-45)" style="fill:#fff"></circle><path d="M460,293.66a138.38,138.38,0,0,0,2.62-81.72c-35.26-3.53-81.54,3-131.94,37.36-53.87,36.77-109,23.62-140.78,10A139,139,0,0,0,460,293.66Z" style="opacity:0.2"></path><path d="M311.85,279.9a161.12,161.12,0,0,1-30.28,27.81,157.86,157.86,0,0,1,52.37-62.5A161,161,0,0,1,311.85,279.9Z" style="fill:#D4D4D4;stroke:#263238;stroke-miterlimit:10"></path><path d="M290.58,220.07a248,248,0,0,1-34.88-42.15A244.57,244.57,0,0,1,334,253.42,248.58,248.58,0,0,1,290.58,220.07Z" style="fill:#D4D4D4;stroke:#263238;stroke-miterlimit:10"></path><circle cx="330.65" cy="249.3" r="7.96" transform="translate(-79.44 306.83) rotate(-45)" style="fill:#263238;stroke:#263238;stroke-miterlimit:10"></circle><line x1="327.91" y1="118.59" x2="327.91" y2="141" style="fill:#fff;stroke:#263238;stroke-miterlimit:10"></line><line x1="327.91" y1="361.86" x2="327.91" y2="384.27" style="fill:#fff;stroke:#263238;stroke-miterlimit:10"></line><line x1="460.75" y1="251.43" x2="438.35" y2="251.43" style="fill:#fff;stroke:#263238;stroke-miterlimit:10"></line><line x1="217.48" y1="251.43" x2="195.07" y2="251.43" style="fill:#fff;stroke:#263238;stroke-miterlimit:10"></line><line x1="442.28" y1="183.86" x2="422.99" y2="195.26" style="fill:#fff;stroke:#263238;stroke-miterlimit:10"></line><line x1="232.83" y1="307.6" x2="213.54" y2="319" style="fill:#fff;stroke:#263238;stroke-miterlimit:10"></line><line x1="389.88" y1="133.93" x2="379.43" y2="153.75" style="fill:#fff;stroke:#263238;stroke-miterlimit:10"></line><line x1="276.4" y1="349.11" x2="265.95" y2="368.93" style="fill:#fff;stroke:#263238;stroke-miterlimit:10"></line><line x1="213.54" y1="183.86" x2="232.83" y2="195.26" style="fill:#fff;stroke:#263238;stroke-miterlimit:10"></line><line x1="422.99" y1="307.6" x2="442.28" y2="319" style="fill:#fff;stroke:#263238;stroke-miterlimit:10"></line><line x1="265.95" y1="133.93" x2="276.4" y2="153.75" style="fill:#fff;stroke:#263238;stroke-miterlimit:10"></line><line x1="379.43" y1="349.11" x2="389.88" y2="368.93" style="fill:#fff;stroke:#263238;stroke-miterlimit:10"></line></g><g id="freepik--character-2--inject-103"><path d="M436.24,411.74c.09.75-19.44.92-19.73,1.71s.6,1.83.6,1.83,9.62,6.1,11.64,7.19,6.4,1.16,8.45,2.44a36.73,36.73,0,0,0,5.63,2.77c.79.29.84.66,3-1.87s2.07-8.4,2-9.33S436.24,411.74,436.24,411.74Z" style="fill:#fff;stroke:#263238;stroke-miterlimit:10"></path><path d="M484.46,303.53l-5.11,6.66s-32.44,33.14-33,36.81-10.14,64.74-10.14,64.74l11.34,6.09,18-57.11,30.16-25.64,1.75.37,18.56,43a8.66,8.66,0,0,0,2.46-.1c.54-.25,62.54-17.69,62.54-17.69l-1.91-8.32-50.57,3L522,316.46s-.11-10.8-2.53-17Z" style="fill:#263238;stroke:#263238;stroke-miterlimit:10"></path><path d="M498.07,234l-5.26,2.13-1.61,7.4,2.94-2.43s-5.82,12.06-7.63,17.77-4.6,29.19-4.88,36.62,0,10.06,5.57,10.37,22.81-1.31,26.53-1.93,6.37-.73,7.56-5.24a33.39,33.39,0,0,0,1.17-7.91c.18-1.73,4.48-33.54,3.69-42s-2.55-12.23-5.92-16.78-5-5.63-5-5.63Z" style="fill:#D4D4D4;stroke:#263238;stroke-miterlimit:10"></path><path d="M495.13,186.49s-5.34,7.51-5.44,9.59-.22,5.54-1.9,7.46-5.41,3.9-4,5.29a15.79,15.79,0,0,0,3.2,2.39s-.32,13.65,1.44,14,11.49-2,11.49-2l.72,9.22,14.65-6-.54-6.14s11.23-13.19,11.13-18.52-1-10.23-7.21-14.68-4.6-2.57-12.85-6.79-12.35-1-12.58,1.45S495.13,186.49,495.13,186.49Z" style="fill:#fff;stroke:#263238;stroke-miterlimit:10"></path><path d="M518.63,187.05c-6.2-4.46-4.6-2.57-12.85-6.79s-12.35-1-12.58,1.45,1.93,4.78,1.93,4.78,4.36-1,5.61-.65,4.46,2.76,4,3.67-3.71,2.15-2.07,4.38,4.7,3.42,4.29,5.88-2.82,3.94-1.3,5.15,2.12.44,3.1,0,5-1.27,3.76,2.67-4.12,4.61-4.12,4.61,1.95,6.5,5.44,6.79a8.44,8.44,0,0,0,2-.17c2.89-3.57,10-12.82,9.93-17.07C525.75,196.4,524.84,191.5,518.63,187.05Z" style="fill:#263238;stroke:#263238;stroke-miterlimit:10"></path><path d="M493.76,202.84c-.14,1-.58,1.76-1,1.7s-.6-.91-.46-1.9.57-1.75,1-1.7S493.9,201.85,493.76,202.84Z" style="fill:#263238"></path><path d="M491.54,197.24s3.28-3,5,.11" style="fill:none;stroke:#263238;stroke-miterlimit:10"></path><polygon points="499.88 223.17 506.44 221.72 500.12 226.76 499.88 223.17" style="fill:#263238;stroke:#263238;stroke-miterlimit:10"></polygon><path d="M514.8,222.78c-.54.25-18.32,10.66-18.32,10.66l.35,7.93L518.63,228Z" style="fill:#D4D4D4;stroke:#263238;stroke-miterlimit:10"></path><path d="M433.86,243.33l40.34-5.61L478.27,268l5.05-.58,3.88,38.46L444.49,314s-4.82-31.9-4.73-39.31h-3.41Z" style="fill:#fff;stroke:#263238;stroke-miterlimit:10"></path><polygon points="443.72 241.62 488.58 235.68 488.44 225.56 443.02 228.98 443.72 241.62" style="fill:#263238;stroke:#263238;stroke-miterlimit:10"></polygon><rect x="447.07" y="230.3" width="25.45" height="6.98" transform="translate(-23.79 54.3) rotate(-6.59)" style="fill:#fff;stroke:#263238;stroke-miterlimit:10"></rect><path d="M483.47,230.86a2.17,2.17,0,1,1-2.4-1.91A2.16,2.16,0,0,1,483.47,230.86Z" style="fill:none;stroke:#263238;stroke-miterlimit:10"></path><line x1="435.72" y1="249.56" x2="457.5" y2="245.91" style="fill:none;stroke:#263238;stroke-miterlimit:10"></line><line x1="446.55" y1="251.35" x2="465.88" y2="247.79" style="fill:none;stroke:#263238;stroke-miterlimit:10"></line><line x1="471.68" y1="252.05" x2="464.26" y2="253.48" style="fill:none;stroke:#263238;stroke-miterlimit:10"></line><line x1="436.65" y1="264.26" x2="460.71" y2="260.53" style="fill:none;stroke:#263238;stroke-miterlimit:10"></line><line x1="446.73" y1="259.49" x2="457.55" y2="257.86" style="fill:none;stroke:#263238;stroke-miterlimit:10"></line><line x1="462.53" y1="259.94" x2="465.88" y2="259.37" style="fill:none;stroke:#263238;stroke-miterlimit:10"></line><line x1="441.98" y1="267.63" x2="463.64" y2="264.56" style="fill:none;stroke:#263238;stroke-miterlimit:10"></line><line x1="473.66" y1="265.87" x2="459.63" y2="267.68" style="fill:none;stroke:#263238;stroke-miterlimit:10"></line><line x1="441.19" y1="273.98" x2="476.13" y2="269.19" style="fill:none;stroke:#263238;stroke-miterlimit:10"></line><line x1="451.76" y1="276.75" x2="466.89" y2="274.62" style="fill:none;stroke:#263238;stroke-miterlimit:10"></line><line x1="442.25" y1="283.16" x2="466.74" y2="279.95" style="fill:none;stroke:#263238;stroke-miterlimit:10"></line><line x1="469.39" y1="279.84" x2="473.67" y2="279.15" style="fill:none;stroke:#263238;stroke-miterlimit:10"></line><line x1="444.44" y1="288.98" x2="456.41" y2="287.41" style="fill:none;stroke:#263238;stroke-miterlimit:10"></line><line x1="453.58" y1="292.48" x2="465.33" y2="290.74" style="fill:none;stroke:#263238;stroke-miterlimit:10"></line><line x1="481.2" y1="301.63" x2="474.13" y2="302.82" style="fill:none;stroke:#263238;stroke-miterlimit:10"></line><line x1="445.44" y1="302.53" x2="452.18" y2="301.75" style="fill:none;stroke:#263238;stroke-miterlimit:10"></line><line x1="450.21" y1="299.51" x2="455.08" y2="298.95" style="fill:none;stroke:#263238;stroke-miterlimit:10"></line><path d="M477.25,282.16,454,306.28s-5.36,2.9-5.77,4.27-2.71,7.72-2.63,8.47,1.65,1.14,2.94.8,2.75-.89,2.75-.89a10.77,10.77,0,0,0,4.27.84,8.27,8.27,0,0,0,5.69-3.32c.62-1.21,3.47-6.09,3.47-6.09l1.78-2.67L485.36,290Z" style="fill:#fff;stroke:#263238;stroke-miterlimit:10"></path><path d="M497.51,278.49s15.32-.44,19.31-2" style="fill:none;stroke:#263238;stroke-miterlimit:10"></path><path d="M495.62,280.22s12.72,8.21,21.61,7.95" style="fill:none;stroke:#263238;stroke-miterlimit:10"></path><path d="M511.34,240.45s-2.81.33-6.9,4.4-25.7,35.43-25.7,35.43l6.62,9.67S521,263.06,521.6,260.33s.46-4.23-.78-8.45" style="fill:#D4D4D4;stroke:#263238;stroke-miterlimit:10"></path><path d="M521.6,260.33s-24.43,11.93-31.69,13.15" style="fill:none;stroke:#263238;stroke-miterlimit:10"></path><line x1="500" y1="267.19" x2="485.74" y2="271.88" style="fill:none;stroke:#263238;stroke-miterlimit:10"></line><path d="M475.89,281.93s7.9,10.86,8.44,10.6,5.33-4.79,5.33-4.79l-8.07-12.35Z" style="fill:#D4D4D4;stroke:#263238;stroke-miterlimit:10"></path><path d="M579.18,352.31l10.41-2a6.47,6.47,0,0,1,1.51,3.24c.45,2.23,3.65,16.85,3.76,17.79s.49,2.6-.07,2.66a4.79,4.79,0,0,1-2.8-1.19c-1-.83-8.94-11.68-8.94-11.68l-2-.54Z" style="fill:#fff;stroke:#263238;stroke-miterlimit:10"></path></g><g id="freepik--character-1--inject-103"><path d="M157.29,182s-12.46-5.26-21-.28-11.76,14-13.14,21.45,2.21,18.12,2.21,20.48a11,11,0,0,1-.55,3.73s1.66,1.52,9.13,1.66,13.7,0,17.85-.69A82,82,0,0,0,162,225.6l-5.26-14.8s8-4.43,12.32-8.44,4.84-11.35.69-17S159.09,179.94,157.29,182Z" style="fill:#263238;stroke:#263238;stroke-miterlimit:10"></path><path d="M148.85,222.42a55.85,55.85,0,0,1,1.52,7.2,10,10,0,0,1-.14,3c-.28,1-.42,1.25-5.4,1s-4.15,8.85-4.15,8.85l.56,43.45a63.39,63.39,0,0,0,20.2,2.91c10.38-.42,13.28-2.91,13.28-2.91l-.83-30.71L169.05,232s-3.46.14-4.71-.42-1.52-.41-1.66-1.38-.69-4.57-.69-4.57Z" style="fill:#fff;stroke:#263238;stroke-miterlimit:10"></path><path d="M173.89,255.22l-2.15-10.34c-8.92,1.4-24,1.69-31,1.74l.51,39.31a63.39,63.39,0,0,0,20.2,2.91c10.38-.42,13.28-2.91,13.28-2.91Z" style="fill:none;stroke:#263238;stroke-miterlimit:10"></path><path d="M124.06,343.14,121,358.43s-6.19,10.84-8.13,19.55-6.39,38.13-6.39,38.13-5.22,9.29-5.61,13.74,1,4.84,3.68,3.49,6-7.36,6.77-12a55.2,55.2,0,0,1,1.36-6.78c.19-.58,19.93-42.78,21.48-46.65s10.46-23.42,10.46-23.42Z" style="fill:#fff;stroke:#263238;stroke-miterlimit:10"></path><path d="M103.35,425.79l1.54-5.62-.6.07c-1.49,3.06-3.24,7.1-3.46,9.61-.39,4.46,1,4.84,3.68,3.49s6-7.36,6.77-12l-4.06,6Z" style="fill:#fff;stroke:#263238;stroke-miterlimit:10"></path><path d="M185.61,345.26a74.7,74.7,0,0,1,.58,12.39c-.39,5-8.71,64.07-8.71,64.07a16.11,16.11,0,0,0,6.2,5.23c4.45,2.32,8.13,4.06,7.35,4.45s-6.19,1-11.61.58-9.68-1-9.68-1a1.79,1.79,0,0,1-1.16-2.32c.38-1.93,1.35-8.13,1.55-9.68s-.39-11-.58-20.71-3.1-19-2.91-25.74,1.16-14.13,1.16-14.13l-2.71-12.2Z" style="fill:#fff;stroke:#263238;stroke-miterlimit:10"></path><path d="M183.68,427l-2.33,1.55s-2.71.77-7.55-1c-1.92-.69-3.5-1.29-4.71-1.76-.2,1.22-.39,2.29-.51,2.92a1.79,1.79,0,0,0,1.16,2.32s4.26.59,9.68,1,10.84-.19,11.61-.58S188.13,429.27,183.68,427Z" style="fill:#fff;stroke:#263238;stroke-miterlimit:10"></path><path d="M137.8,284.68s-8.32,17-10.06,27.1-4.46,33.29-4.46,33.29,25,2.71,38.91,2.9a169.92,169.92,0,0,0,23.61-1.16s-4.83-37.55-6.19-46.45a92.75,92.75,0,0,0-4.06-16.26l-38.33-1.36Z" style="fill:#263238;stroke:#263238;stroke-miterlimit:10"></path><path d="M160.38,195s.44,3.95-5.93,10.1a26.37,26.37,0,0,1-14.71,6.81s6.8,10.33,7.9,11.64,10.11,4.84,15.82,3.08,5.49-10.54,5.71-16.25-6.15-15.6-6.15-15.6Z" style="fill:#fff;stroke:#263238;stroke-miterlimit:10"></path><path d="M159.28,203.78s0,3.07.66,4.17,4,1.76,4,1.76l-1.1,3.07" style="fill:none;stroke:#263238;stroke-miterlimit:10"></path><path d="M139.74,211.9c-.24-.29-2.11,2-2.21,2.27-.85,2.25.66,5.29,3.22,5.29,2.85,0,3.19-.83,3.19-.83S139.75,211.93,139.74,211.9Z" style="fill:#fff;stroke:#263238;stroke-miterlimit:10"></path><ellipse cx="160.88" cy="217.48" rx="1.62" ry="2" style="fill:#263238"></ellipse><path d="M163.76,204.69c.24.8,0,1.58-.5,1.73s-1.12-.37-1.37-1.17,0-1.58.5-1.73S163.52,203.89,163.76,204.69Z" style="fill:#263238"></path><path d="M154.34,207.29c.24.8,0,1.58-.5,1.73s-1.13-.37-1.37-1.17,0-1.58.5-1.73S154.1,206.49,154.34,207.29Z" style="fill:#263238"></path><path d="M160,201.72s2.28-2.16,4.12-1.73" style="fill:none;stroke:#263238;stroke-miterlimit:10"></path><path d="M52.05,215.19s-4.26,1.93-3.87,2.9,1.94,5.23,3.1,5a11.28,11.28,0,0,0,5-3.29C57.28,218.48,52.05,215.19,52.05,215.19Z" style="fill:#fff;stroke:#263238;stroke-miterlimit:10"></path><path d="M67.54,219.83s-8.13-3.87-9.49-4.64-11.23-6-11.23-6-1.93,1-1.54,2.13,7.16,5.42,7.93,6.19a3.24,3.24,0,0,1,.78,2.9c-.2,1-5.42,3.68-6.39,3.88s-2.13,1-.39,2.13,5.62-.2,7.16-.39,2.91.39,4.84.39a16.78,16.78,0,0,0,5-1.36l1.35.19Z" style="fill:#fff;stroke:#263238;stroke-miterlimit:10"></path><path d="M164.34,231.55s5.4,23.8,5.26,30.72.69,38.89.28,44.28-.83,10.93,6,12.73a18.21,18.21,0,0,0,12.59-1.52s-9.41-31.69-10.24-37.08-1.66-10.24-1.11-13,2.36-5.54,2.63-8.72a30.22,30.22,0,0,0-.13-6.09l17.15,12.73a7.69,7.69,0,0,0,6.37,1.66c3.6-.83,4.29-10.65,2.21-14.8S186.07,238.2,183,236.26s-9.4-4.71-11.07-4.71Z" style="fill:#D4D4D4;stroke:#263238;stroke-miterlimit:10"></path><path d="M169.79,245.08l3.92-2.62-6.4-10.91h-3s5.4,23.8,5.26,30.72c0,2.26,0,7.17.1,13L175,248Z" style="fill:#D4D4D4;stroke:#263238;stroke-miterlimit:10"></path><path d="M174.45,223.11l1.93,14.95s5,1,5.81.55.83-2.35.83-2.35L181,223.39Z" style="fill:#263238;stroke:#263238;stroke-miterlimit:10"></path><path d="M196.33,228.77l-.18-26.1c-15.59,8.93-28.38,10-28.38,10-1.93,0-3.5,2.58-3.5,5.78s1.57,5.78,3.5,5.78a2,2,0,0,0,.42-.05C181.91,222.6,196.33,228.77,196.33,228.77Z" style="fill:#fff;stroke:#263238;stroke-miterlimit:10"></path><ellipse cx="197.77" cy="215.81" rx="11.87" ry="15.94" style="fill:#fff;stroke:#263238;stroke-miterlimit:10"></ellipse><ellipse cx="197.77" cy="215.81" rx="9.98" ry="13.39" style="fill:#fff;stroke:#263238;stroke-miterlimit:10"></ellipse><path d="M188.44,211.09a17.59,17.59,0,0,0-.65,4.72,17,17,0,0,0,1,5.85l6.74-1.74V211.7l-6.93-.8Z" style="fill:#fff;stroke:#263238;stroke-miterlimit:10"></path><ellipse cx="195.55" cy="215.81" rx="3.06" ry="4.11" style="fill:#D4D4D4;stroke:#263238;stroke-miterlimit:10"></ellipse><path d="M174.45,211.44a48.6,48.6,0,0,1-6.68,1.22c-1.93,0-3.5,2.58-3.5,5.78s1.57,5.78,3.5,5.78a2,2,0,0,0,.42-.05,42.4,42.4,0,0,1,6.56-.21C170.49,219.28,173.41,213.24,174.45,211.44Z" style="fill:#D4D4D4;stroke:#263238;stroke-miterlimit:10"></path><polygon points="172.34 226.6 170.47 228.04 171.33 232.95 173.64 233.38 174.07 227.46 172.34 226.6" style="fill:#fff;stroke:#263238;stroke-miterlimit:10"></polygon><path d="M185.79,233.63l-5.36-8.91-8.09,1.88-.14,2,1,.57.86,7.37,5.78,1s1.87,2,2.88,2.16a7.63,7.63,0,0,0,2.31-.14l2,1.59,3.61-4.62Z" style="fill:#fff;stroke:#263238;stroke-miterlimit:10"></path><path d="M187.93,234.1l-4.47,7.08s10.91,23.17,14,25.24A8.68,8.68,0,0,0,208.9,265c3.46-3.87,2.49-9.69.55-12.32S187.93,234.1,187.93,234.1Z" style="fill:#D4D4D4;stroke:#263238;stroke-miterlimit:10"></path><line x1="173.21" y1="229.19" x2="179.7" y2="228.33" style="fill:#fff;stroke:#263238;stroke-miterlimit:10"></line><line x1="174.07" y1="232.08" x2="179.13" y2="231.79" style="fill:#fff;stroke:#263238;stroke-miterlimit:10"></line><line x1="173.93" y1="234.39" x2="178.84" y2="234.97" style="fill:#fff;stroke:#263238;stroke-miterlimit:10"></line><path d="M150.37,229.62s-2.63,1.24-3.05,1.52-13.42-2.08-13.42-2.08a69.14,69.14,0,0,1-8.83.85c-3.59,0-16.49-1.68-16.49-1.68l-42.2-9.68-1.67,9.13,45.53,18.13,21.17,8.58s.83,9.82,1.11,17.43-4.57,19.23-5.4,21.72-10.51,19.52-10.51,19.52,14.11,6.22,20.2,7.47c6.43,1.31,15.07-1.68,17.58-8.12,1.21-3.09,1.32-6.49,1.42-9.8.49-16.53.59-34-2.81-50.3C152.17,248.57,150.37,229.62,150.37,229.62Z" style="fill:#D4D4D4;stroke:#263238;stroke-miterlimit:10"></path><path d="M148.09,246.12l-4.19,3.4,12,29.62A156.36,156.36,0,0,0,153,252.31c-.83-3.74-2.63-22.69-2.63-22.69s-2.63,1.24-3.05,1.52l-4.2,12.63Z" style="fill:#D4D4D4;stroke:#263238;stroke-miterlimit:10"></path></g></svg>