<svg xmlns="http://www.w3.org/2000/svg" viewBox="0 0 500 500"><g id="freepik--Character--inject-232"><path d="M281,109.16c.46-.27.83,0,.83.48l0,5.61a1.82,1.82,0,0,1-.83,1.43c-.46.27-.83,0-.83-.47l0-5.61A1.84,1.84,0,0,1,281,109.16Z" style="fill:#68C89E"></path><path d="M270.33,119.82a.57.57,0,0,1,.64,0l3.15,2.48c.3.24.25.87-.1,1.41a1.57,1.57,0,0,1-.53.53.56.56,0,0,1-.64,0l-3.15-2.48c-.3-.24-.26-.87.1-1.41A1.61,1.61,0,0,1,270.33,119.82Z" style="fill:#68C89E"></path><path d="M266.63,127.06A.73.73,0,0,1,267,127l4.24.37c.4,0,.54.54.31,1.13a1.87,1.87,0,0,1-.72.89.7.7,0,0,1-.42.11l-4.24-.36c-.39,0-.53-.54-.3-1.13A1.79,1.79,0,0,1,266.63,127.06Z" style="fill:#68C89E"></path><path d="M270.9,141c.29-.17.57-.16.72.06a1.39,1.39,0,0,1-.3,1.48l-4.22,5.25a1.49,1.49,0,0,1-.41.36c-.29.17-.57.16-.73-.06a1.41,1.41,0,0,1,.3-1.48l4.22-5.25A1.52,1.52,0,0,1,270.9,141Z" style="fill:#68C89E"></path><path d="M269.49,137.35c.4-.22.75-.1.82.32a1.77,1.77,0,0,1-.67,1.5l-4.81,3.75-.14.1c-.4.23-.75.11-.82-.32a1.74,1.74,0,0,1,.67-1.5l4.8-3.75Z" style="fill:#68C89E"></path><path d="M291.75,107.46a.64.64,0,0,1,.54-.09c.35.14.4.71.11,1.29l-3.13,6.11a1.72,1.72,0,0,1-.64.71.68.68,0,0,1-.54.09c-.35-.14-.4-.72-.1-1.3l3.12-6.1A1.66,1.66,0,0,1,291.75,107.46Z" style="fill:#68C89E"></path><path d="M286.73,107a.84.84,0,0,1,.29-.1c.43-.07.65.35.5.94l-1.66,6.23a1.82,1.82,0,0,1-.78,1.08.82.82,0,0,1-.28.11c-.43.07-.66-.35-.5-.94l1.65-6.23A1.87,1.87,0,0,1,286.73,107Z" style="fill:#68C89E"></path><g style="opacity:0.2"><path d="M281,109.16c.46-.27.83,0,.83.48l0,5.61a1.82,1.82,0,0,1-.83,1.43c-.46.27-.83,0-.83-.47l0-5.61A1.84,1.84,0,0,1,281,109.16Z"></path><path d="M270.33,119.82a.57.57,0,0,1,.64,0l3.15,2.48c.3.24.25.87-.1,1.41a1.57,1.57,0,0,1-.53.53.56.56,0,0,1-.64,0l-3.15-2.48c-.3-.24-.26-.87.1-1.41A1.61,1.61,0,0,1,270.33,119.82Z"></path><path d="M266.63,127.06A.73.73,0,0,1,267,127l4.24.37c.4,0,.54.54.31,1.13a1.87,1.87,0,0,1-.72.89.7.7,0,0,1-.42.11l-4.24-.36c-.39,0-.53-.54-.3-1.13A1.79,1.79,0,0,1,266.63,127.06Z"></path><path d="M270.9,141c.29-.17.57-.16.72.06a1.39,1.39,0,0,1-.3,1.48l-4.22,5.25a1.49,1.49,0,0,1-.41.36c-.29.17-.57.16-.73-.06a1.41,1.41,0,0,1,.3-1.48l4.22-5.25A1.52,1.52,0,0,1,270.9,141Z"></path><path d="M269.49,137.35c.4-.22.75-.1.82.32a1.77,1.77,0,0,1-.67,1.5l-4.81,3.75-.14.1c-.4.23-.75.11-.82-.32a1.74,1.74,0,0,1,.67-1.5l4.8-3.75Z"></path><path d="M291.75,107.46a.64.64,0,0,1,.54-.09c.35.14.4.71.11,1.29l-3.13,6.11a1.72,1.72,0,0,1-.64.71.68.68,0,0,1-.54.09c-.35-.14-.4-.72-.1-1.3l3.12-6.1A1.66,1.66,0,0,1,291.75,107.46Z"></path><path d="M286.73,107a.84.84,0,0,1,.29-.1c.43-.07.65.35.5.94l-1.66,6.23a1.82,1.82,0,0,1-.78,1.08.82.82,0,0,1-.28.11c-.43.07-.66-.35-.5-.94l1.65-6.23A1.87,1.87,0,0,1,286.73,107Z"></path></g><path d="M283.64,388.62a12.53,12.53,0,0,0,9.53,3.59,28.31,28.31,0,0,0,10.07-2.61c3.23-1.36,7.27-5.16,10.76-5.09a82.41,82.41,0,0,0,10.19-.71,55.73,55.73,0,0,0-1.45-14.15l-16.27-.44c-4.39,6.17-12.93,11.3-19.39,13.22a5.78,5.78,0,0,0-4,4.38.41.41,0,0,0,0,.11A7.3,7.3,0,0,0,283.64,388.62Z" style="fill:#455a64"></path><path d="M314,384.51c-3.49-.07-7.53,3.73-10.76,5.09a28.31,28.31,0,0,1-10.07,2.61,12.53,12.53,0,0,1-9.53-3.59,7.3,7.3,0,0,1-.56-1.7.41.41,0,0,1,0-.11,5.36,5.36,0,0,0,0,2.22,7.3,7.3,0,0,0,.56,1.7,12.49,12.49,0,0,0,9.53,3.59,28.3,28.3,0,0,0,10.07-2.6c3.23-1.36,7.27-5.16,10.76-5.09a74.47,74.47,0,0,0,10-.6c.08-.74.13-1.49.16-2.23A82.41,82.41,0,0,1,314,384.51Z" style="fill:#37474f"></path><path d="M356.75,389.65a24.52,24.52,0,0,1-.49,5.06,11.77,11.77,0,0,1-4.51,7.37,14.26,14.26,0,0,1-7.17,2,15.57,15.57,0,0,1-6.55-.7,7.45,7.45,0,0,1-3.84-3.21s0,.06,0,.09a7,7,0,0,0,4.42,4.71,15.45,15.45,0,0,0,6.56.69,14.14,14.14,0,0,0,7.16-1.95,11.71,11.71,0,0,0,4.51-7.38,24.43,24.43,0,0,0,.49-5.05,8.63,8.63,0,0,1,2.65-6.18,14.6,14.6,0,0,0,1.15-1.22,3,3,0,0,0,.71-2.21c0-.31-.06-.62-.1-.92-.59.72-2,2.42-2.36,2.76A8.66,8.66,0,0,0,356.75,389.65Z" style="fill:#37474f"></path><path d="M344.31,372A19,19,0,0,1,343,382.29a39.76,39.76,0,0,1-5.29,8.92,26.74,26.74,0,0,0-2.78,4.14,7.65,7.65,0,0,0-.78,4.78,7.45,7.45,0,0,0,3.84,3.21,15.57,15.57,0,0,0,6.55.7,14.26,14.26,0,0,0,7.17-2,11.77,11.77,0,0,0,4.51-7.37,24.52,24.52,0,0,0,.49-5.06,8.66,8.66,0,0,1,2.64-6.18c.36-.34,1.77-2,2.36-2.76a18.89,18.89,0,0,0-2.43-7.15Z" style="fill:#455a64"></path><path d="M300.66,223l1.23,86.06,4,60.24c10,6.5,17.3,1.19,17.3,1.19,3.81-28.54,4.32-46.09,2.25-58l1.9-46.44L333,314.3l9.6,59.11c10.29,6.84,17.56,0,17.56,0,0-21.88,1.9-46.34-4-62.12,4.15-48.75-2.77-87.39-2.77-87.39Z" style="fill:#37474f"></path><path d="M325.2,248.35l2.1,17.74-.89,21.75-3.86-35.76c-9-3.59-10.12-8.64-10.12-8.64A27,27,0,0,0,325.2,248.35Z" style="fill:#263238"></path><path d="M308.27,123.53l-2.29-1.2-.05,0-.09,0h0a1.29,1.29,0,0,0-1.19.06l-20.49,11.83a2.64,2.64,0,0,0-1.32,2.29v9.92a1.28,1.28,0,0,0,.54,1.06h0l0,0a1.19,1.19,0,0,0,.25.13l2.22,1.18-.11-1.81,19.53-11.27a2.65,2.65,0,0,0,1.33-2.29v-8.64Z" style="fill:#455a64"></path><path d="M307.62,136.89l-20.49,11.83a1.33,1.33,0,0,1-2-1.14v-9.93a2.67,2.67,0,0,1,1.32-2.29L307,123.53a1.32,1.32,0,0,1,2,1.15v9.92A2.63,2.63,0,0,1,307.62,136.89Z" style="fill:#455a64"></path><path d="M286.46,137.65a1.33,1.33,0,0,1,.66-1.14l20.5-11.83v9.92a1.33,1.33,0,0,1-.66,1.15l-20.49,11.82Z" style="fill:#68C89E"></path><path d="M298.71,152.32a3.55,3.55,0,0,1,1.33-1.59,9.24,9.24,0,0,0,3.77-4.65,25.67,25.67,0,0,0,.94-6.31,9.83,9.83,0,0,1,2.16-5.89c-3.64-1.47-5.12,1.84-6.44,7.14l-12.19,7,.17.4a3,3,0,0,1,0,2.48l-3.55,7.21a12.4,12.4,0,0,0,12,1.35A61.08,61.08,0,0,1,298.71,152.32Z" style="fill:#ffa8a7"></path><path d="M296.25,166.92c.64-2.59,1.41-6,1.91-9a15.73,15.73,0,0,1-13.69-1.62,70.18,70.18,0,0,0-3.88,7.58A17.74,17.74,0,0,0,296.25,166.92Z" style="fill:#e0e0e0"></path><path d="M295.12,171.24s.5-1.78,1.13-4.32a17.74,17.74,0,0,1-15.66-3.07A80.57,80.57,0,0,0,274.28,189a21.48,21.48,0,0,0,.37,7.59,8.94,8.94,0,0,0,4.57,5.84c3.23,1.48,7.1.2,10-1.81,5.51-3.78,9-9.81,12.25-15.63l8.87-31.67C305.09,153.9,300.79,156.85,295.12,171.24Z" style="fill:#f0f0f0"></path><path d="M295.12,171.24c-2.08,7.36-5.33,19.11-5.33,19.11C297.19,182.83,295.12,171.24,295.12,171.24Z" style="opacity:0.1"></path><path d="M309.06,158a22.29,22.29,0,0,0-6.63,7.07c-2.9,5-3.75,10.82-4.54,16.52q-.84,6-1.67,12A88.35,88.35,0,0,0,301.5,185Z" style="opacity:0.1"></path><path d="M319.83,152.35l-9.46,1c-7.75,6.83-11.75,21.16-10.08,37a207.34,207.34,0,0,1,.37,32.66c21,15.34,49.43,4.2,52.76.87l-2.69-19.45a13.59,13.59,0,0,1,1.06-6.39c2-4.61,5.52-13.67,6-20.69A36.72,36.72,0,0,0,354,159.26l-13.75-6Z" style="fill:#f0f0f0"></path><path d="M351.79,198c1.75-4.06,4.7-11.57,5.7-18.1-1.95,1.18-4,2.34-4.82,4.28A34.37,34.37,0,0,0,350.72,204,13.53,13.53,0,0,1,351.79,198Z" style="opacity:0.1"></path><path d="M317.21,166.14c-7.92,18.21-7.79,37-7.79,37l3.89,8.37,6.11-8a314.94,314.94,0,0,1,.73-36.79Z" style="fill:#68C89E"></path><path d="M316.87,159.26a28.41,28.41,0,0,0,.34,6.88,5.46,5.46,0,0,0,2.94.54,23.91,23.91,0,0,0,4.72-5.71l-4.72-1.71Z" style="fill:#68C89E"></path><path d="M320.15,159.26c4.07,1.5,7.69,8.75,7.69,8.75,10.7-9.08,12.37-14.75,12.37-14.75-2.75-3.91-5.75-4.54-5.75-4.54Z" style="fill:#e0e0e0"></path><path d="M320.15,159.26c-3.11.09-5.86,4.42-5.86,4.42-.5-7.58,5.86-13.42,5.86-13.42Z" style="fill:#e0e0e0"></path><path d="M334.71,140.23l-14.56,5.2v5.39a23.84,23.84,0,0,0,9.23-3.35A14.17,14.17,0,0,0,334.71,140.23Z" style="fill:#f28f8f"></path><path d="M334.71,140.23a14.17,14.17,0,0,1-5.33,7.24,23.84,23.84,0,0,1-9.23,3.35v8.44s15.39-6.91,15.39-10.16v-9.17Z" style="fill:#ffa8a7"></path><path d="M306.66,118.88a8.79,8.79,0,0,1-8-4.5,1.21,1.21,0,0,1,1.31-1.74,9.54,9.54,0,0,0,3.37,0,16,16,0,0,1-3.14-11.9,1.51,1.51,0,0,1,2.15-1.13,29.57,29.57,0,0,0,14.95,3c2.75-.19,5.46-.78,8.21-1a15.22,15.22,0,0,1,8.07,1.23,7.67,7.67,0,0,1,4.4,6.5,3.79,3.79,0,0,1,2.73-1.58,4.21,4.21,0,0,1,3.18.94c-1.59.88-3.14,1.76-4.73,2.63,1.63-.58,3.68.69,4.49,2.22a10.94,10.94,0,0,1,.87,5.06,39.39,39.39,0,0,1-.31,6.87,13.19,13.19,0,0,1-2.6,6.3,10,10,0,0,1-4.74,3.21,12.92,12.92,0,0,1-7.68-.25,30.48,30.48,0,0,1-7-3.48A109.41,109.41,0,0,1,306.66,118.88Z" style="fill:#263238"></path><path d="M306.31,114.3a52.83,52.83,0,0,0,3,28.25c.82,2.07,1.9,4.21,3.83,5.32s4.54.91,6.85.56a34.68,34.68,0,0,0,10.82-3,14.75,14.75,0,0,0,7.49-8.07,6.48,6.48,0,0,0,6.56-2.57,12.27,12.27,0,0,0,2.13-7.17c0-1.62-.3-3.53-1.76-4.24s-3,.08-4.15,1a12.42,12.42,0,0,0-4,6.06c-1.07-3.94-2.74-7.75-3.81-11.7-.42-1.56-.94-3.25-2.3-4.12-1.65-1.06-3.81-.45-5.72,0A37.74,37.74,0,0,1,306.31,114.3Z" style="fill:#ffa8a7"></path><polygon points="317.82 126.28 313.2 134.06 318.71 135.09 317.82 126.28" style="fill:#f28f8f"></polygon><path d="M324,137.77l-4.19,2a2.75,2.75,0,0,0,3.18.91A2.49,2.49,0,0,0,324,137.77Z" style="fill:#f28f8f"></path><path d="M324,137.77l-4.19,2a2.75,2.75,0,0,0,3.18.91A2.49,2.49,0,0,0,324,137.77Z" style="opacity:0.30000000000000004"></path><path d="M321.55,140.84a2.56,2.56,0,0,0,1.46-.13,2.24,2.24,0,0,0,1.11-2.21,2.64,2.64,0,0,0-1.64.57A2.67,2.67,0,0,0,321.55,140.84Z" style="fill:#f28f8f"></path><path d="M325.8,126.59a1.58,1.58,0,1,1-3.15.32,1.57,1.57,0,0,1,1.41-1.73A1.59,1.59,0,0,1,325.8,126.59Z" style="fill:#263238"></path><path d="M312.54,127.42A1.58,1.58,0,1,1,310.8,126,1.59,1.59,0,0,1,312.54,127.42Z" style="fill:#263238"></path><path d="M310.37,121.31l-3.24,2.76a2.25,2.25,0,0,1,.43-2.53A2.66,2.66,0,0,1,310.37,121.31Z" style="fill:#263238"></path><path d="M323.83,119.76c1.24.69,2.48,1.38,3.73,2.06a2.26,2.26,0,0,0-.93-2.4A2.7,2.7,0,0,0,323.83,119.76Z" style="fill:#263238"></path><path d="M386.12,193.43l5-2.48a8.92,8.92,0,0,0,3.75-3.5l1.57-2.69a11,11,0,0,1,4.6-4.28,37.45,37.45,0,0,0,8-5.3h0a4.17,4.17,0,0,1-.64,5.22,30,30,0,0,1-3.28,2.61l2.41.61a8.57,8.57,0,0,0,5.25-.32l6.88-2.67a1.2,1.2,0,0,1,1.61,1.32,27.24,27.24,0,0,1-3.41,8.63,10.28,10.28,0,0,1-7,4.91c-3.51.66-6.91,1.18-8.84,1.45a10.7,10.7,0,0,0-3.18,1l-7.38,3.67Z" style="fill:#ffa8a7"></path><path d="M381.34,201.16a12.5,12.5,0,0,1-.88-6.54L371,199.1a197.3,197.3,0,0,1-4-20.88c-1.12-9.49-.87-15.87-13.08-19l-1.29,25s1.5,30.5,10.25,33.88c7.24,2.79,12.35-4.1,23.4-11.24A12.49,12.49,0,0,1,381.34,201.16Z" style="fill:#f0f0f0"></path><path d="M364.71,205.35c.33-1.42,2.66-4.67,6.33-6.25,0,0-.28-1.11-.69-2.91C368.45,197.13,363.77,200,364.71,205.35Z" style="opacity:0.1"></path><path d="M388.92,190.6l-8.46,4a12.3,12.3,0,0,0,5.86,12.24,77.52,77.52,0,0,1,7.72-4.39S389.54,198.85,388.92,190.6Z" style="fill:#e0e0e0"></path></g></svg>