<svg xmlns="http://www.w3.org/2000/svg" viewBox="0 0 500 500"><g id="freepik--Character--inject-2"><path d="M213.2,190.85s-17.68-4-30.54,2.81-14.46,16.48-18.08,29.74-12.05,27.32-19.69,39,4.82,28.53,24.11,35.36,52.64,6,67.51-2.81,10-24.11,6.43-36.16-5.63-19.29-5.63-23.31,7.65-6.67,2.41-22.9C235.71,200.09,223.65,188.44,213.2,190.85Z" style="fill:#263238;stroke:#263238;stroke-linecap:round;stroke-linejoin:round"></path><path d="M166.53,243.15c-3.34,1.33-5.38,1.91-5.38,1.91" style="fill:none;stroke:#828282;stroke-linecap:round;stroke-linejoin:round"></path><path d="M209.6,206.37s-4.7,12.3-19.53,23.5a102.5,102.5,0,0,1-18.76,11.23" style="fill:none;stroke:#828282;stroke-linecap:round;stroke-linejoin:round"></path><path d="M196.28,203.32c-2.77,3.54-7.26,9.25-13.8,17.52-12.29,15.54-15.55,18.43-21,20.24" style="fill:none;stroke:#828282;stroke-linecap:round;stroke-linejoin:round"></path><path d="M199.84,198.78l-1.92,2.45" style="fill:none;stroke:#828282;stroke-linecap:round;stroke-linejoin:round"></path><path d="M214.3,194.44s13.38,10.85,9,18.44" style="fill:none;stroke:#828282;stroke-linecap:round;stroke-linejoin:round"></path><path d="M238.53,217.53a9.57,9.57,0,0,1-.37,6.56" style="fill:none;stroke:#828282;stroke-linecap:round;stroke-linejoin:round"></path><path d="M221.89,201.31s10.76,5.47,15.18,12.92" style="fill:none;stroke:#828282;stroke-linecap:round;stroke-linejoin:round"></path><path d="M251.86,425.92c-3.11.94-51.35,22.1-66,27.08a125.39,125.39,0,0,1-28.33,5.92l7.11,14.69a241.1,241.1,0,0,0,31.9,3.4c44.16,1.84,72.42-4.69,94.15-14.5-3.6-8.61-9.85-22.91-14.26-29.43C269.92,423.43,255,425,251.86,425.92Z" style="fill:#263238;stroke:#263238;stroke-linecap:round;stroke-linejoin:round"></path><path d="M232.84,436c23.83-6.62,32.79-9,44.86-2.87-1.25-2.49-7.16-11.82-7.16-11.82-10.58-2.81-45.13,5.91-72.21,16.8s-43.58,2.18-43.58,2.18-.31,19.61,6.54,21.17C161.29,461.41,209,442.57,232.84,436Z" style="fill:#92E3A9;stroke:#263238;stroke-linecap:round;stroke-linejoin:round"></path><path d="M178.28,281.18s-50.92,16.2-52.79,19.93-19.29,71-19.29,71,6.22,8.09,9.64,10.58a14,14,0,0,0,15.57,0C137,378.92,144.48,364,144.48,364s10,75,10.27,76.26,5,5.92,12.45,8.1,40.78-10,59.14-15.26,33.62-7.16,40.46-8.4,9-4.05,7.79-9.65-1.25-17.43-1.25-17.43,13.07,10.27,15.25,4.67-9-27.39-14-48.56-6.85-48.55-16.19-53.22-45.75-14.94-45.75-14.94-25.31-6.16-33.36-3.86" style="fill:#92E3A9;stroke:#263238;stroke-linecap:round;stroke-linejoin:round"></path><line x1="241.23" y1="331.59" x2="245.64" y2="376.43" style="fill:none;stroke:#263238;stroke-linecap:round;stroke-linejoin:round"></line><line x1="240.35" y1="322.59" x2="240.8" y2="327.23" style="fill:none;stroke:#263238;stroke-linecap:round;stroke-linejoin:round"></line><path d="M203.89,374.21c1.23.79,2.49,1.54,3.78,2.22" style="fill:none;stroke:#263238;stroke-linecap:round;stroke-linejoin:round"></path><path d="M184.63,356.83a94.47,94.47,0,0,0,17.16,16" style="fill:none;stroke:#263238;stroke-linecap:round;stroke-linejoin:round"></path><path d="M190.55,368.65a114.33,114.33,0,0,0,16.8,11.83" style="fill:none;stroke:#263238;stroke-linecap:round;stroke-linejoin:round"></path><path d="M237.41,425.26c3.56.22,6.76.35,9.16.35" style="fill:none;stroke:#263238;stroke-linecap:round;stroke-linejoin:round"></path><path d="M205.18,422.5S219.92,424,232.69,425" style="fill:none;stroke:#263238;stroke-linecap:round;stroke-linejoin:round"></path><path d="M183.08,424.68s20.54,4.05,36.72,4.05" style="fill:none;stroke:#263238;stroke-linecap:round;stroke-linejoin:round"></path><path d="M180.59,274.34s-5.75,11.94-5.3,17.12,8.1,13.7,19.61,14.63,20.86-6.54,22.1-10,3.12-14.32,3.12-14.32-14.32,3.74-25.84-2.8-13.38-7.47-13.38-7.47Z" style="fill:#92E3A9;stroke:#263238;stroke-linecap:round;stroke-linejoin:round"></path><line x1="182.98" y1="301.96" x2="186.83" y2="289.81" style="fill:none;stroke:#263238;stroke-linecap:round;stroke-linejoin:round"></line><line x1="187.42" y1="288.03" x2="188.31" y2="284.78" style="fill:none;stroke:#263238;stroke-linecap:round;stroke-linejoin:round"></line><line x1="193.64" y1="295.44" x2="190.38" y2="305.22" style="fill:none;stroke:#263238;stroke-linecap:round;stroke-linejoin:round"></line><line x1="177.35" y1="296.33" x2="180.31" y2="287.15" style="fill:none;stroke:#263238;stroke-linecap:round;stroke-linejoin:round"></line><path d="M221.24,215s-8.44,12-18.48,16.88a135.07,135.07,0,0,1-20.5,7.63s-.4,5.63-2.41,6.43-4.42-2-4.42-2l-6,1.61a6.13,6.13,0,0,0-.4,6c1.61,3.22,6.43,4,6.43,4s3.22,15.67,6.83,20.5S198.74,290.5,208,289.3,232.49,272,232.89,266s1.21-18.48,1.61-24.91S236.11,231,233.29,227,221.24,215,221.24,215Z" style="fill:#fff;stroke:#263238;stroke-linecap:round;stroke-linejoin:round"></path><path d="M193.92,252.33s4,3.61,10.44,1.2" style="fill:none;stroke:#263238;stroke-linecap:round;stroke-linejoin:round"></path><path d="M217.62,253.94s6,2.81,9.65,0" style="fill:none;stroke:#263238;stroke-linecap:round;stroke-linejoin:round"></path><path d="M194.32,243.89s7.63-2.41,14.06,0" style="fill:none;stroke:#263238;stroke-linecap:round;stroke-linejoin:round;stroke-width:2px"></path><path d="M217.62,244.69s9.25-1.6,12.06,1.21" style="fill:none;stroke:#263238;stroke-linecap:round;stroke-linejoin:round;stroke-width:2px"></path><path d="M215.21,265.59s-3.61,2.41-7.23,1.2" style="fill:none;stroke:#263238;stroke-linecap:round;stroke-linejoin:round"></path><path d="M200.75,270.81A16.67,16.67,0,0,0,218,272" style="fill:none;stroke:#263238;stroke-linecap:round;stroke-linejoin:round"></path><path d="M286.1,397.6c-4.67-7.47-18.05-9-23-7.16s-10.58-.31-10.58-.31l-15.57,17.12s16.81,7.47,24.9,12.45,14.32,4.67,21.79-3.11,5-15.57,5-15.57" style="fill:#92E3A9;stroke:#263238;stroke-linecap:round;stroke-linejoin:round"></path><path d="M238.48,392s-4.36,7.78-2.8,13.07,14,0,18.67-8.4S243.77,383.59,238.48,392Z" style="fill:#fff;stroke:#263238;stroke-linecap:round;stroke-linejoin:round"></path><path d="M242.27,346.06l-20.13,37.66a1.65,1.65,0,0,0,1.2,2.4L242.4,389a1.63,1.63,0,0,0,1.63-.74l23-36.57a1.65,1.65,0,0,0-1.1-2.49l-22-4A1.67,1.67,0,0,0,242.27,346.06Z" style="fill:#263238;stroke:#263238;stroke-linecap:round;stroke-linejoin:round"></path><path d="M245,398.53s-11.52-5.6-13.39-8.09-.62-3.73-.62-3.73-4-1.87-5.6-4.36,1.86-3.11,1.86-3.11l20.55,4s-10.9-4.36-13.08-4.36a2.79,2.79,0,0,1-2.8-3.73c.63-1.87,1.25-2.49,5.61-1.25s14.94,3.74,14.94,3.74-.32-2.8-1.25-3.42-9.34-3.43-11.2-5.3-.32-3.42,1.86-3.42,16.19,5,17.43,5.91,0,8.72,0,8.72,0,7.47-1.24,11.21S250,402.27,250,402.27" style="fill:#fff;stroke:#263238;stroke-linecap:round;stroke-linejoin:round"></path><line x1="231.01" y1="386.71" x2="246.26" y2="392.93" style="fill:none;stroke:#263238;stroke-linecap:round;stroke-linejoin:round"></line><line x1="247.82" y1="383.28" x2="255.6" y2="388.26" style="fill:none;stroke:#263238;stroke-linecap:round;stroke-linejoin:round"></line><path d="M252.49,377.68s3.73,1.56,5,3.11" style="fill:none;stroke:#263238;stroke-linecap:round;stroke-linejoin:round"></path><path d="M147,423.64v46.11A194.41,194.41,0,0,1,123.73,462V423.64Z" style="fill:#263238;stroke:#263238;stroke-linecap:round;stroke-linejoin:round"></path><rect x="115.69" y="398.23" width="38.96" height="31.34" rx="7.28" style="fill:#263238;stroke:#263238;stroke-linecap:round;stroke-linejoin:round"></rect><path d="M229.08,398.37c-12.23-6.23-48.42-10.74-91.17-10.74S59,392.14,46.75,398.37H42.32V403c0,8.49,42.8,15.37,95.59,15.37S233.5,411.49,233.5,403v-4.63Z" style="fill:#263238;stroke:#263238;stroke-linecap:round;stroke-linejoin:round"></path><ellipse cx="137.91" cy="398.37" rx="95.59" ry="15.37" style="fill:#fff;stroke:#263238;stroke-linecap:round;stroke-linejoin:round"></ellipse><path d="M165.61,294.36s-4.81-20.52-4.81-22.55,10.89-8.87,13.43-10.39,4.81.76,4.81.76a9.91,9.91,0,0,0,3.55,2c1.52.25,2.79,2,2.79,4.05s.5,9.38.5,11.15-2.79,3.8-4.31,3.8-1.26-3-1.26-3a4.88,4.88,0,0,1-2,1,5.4,5.4,0,0,0-1.52.26s1,11.4-1,15.2a35.22,35.22,0,0,0-2.79,6.59L136,381s-6.08,11.41-14.19,11.66-16-5.32-17-12.92,2.54-16.22,7.86-22.3S160.29,303.23,165.61,294.36Z" style="fill:#fff;stroke:#263238;stroke-linecap:round;stroke-linejoin:round"></path><path d="M176.76,281.44v-5.32l5.5-.08-3,5.65S178.53,280.68,176.76,281.44Z" style="fill:#fff;stroke:#263238;stroke-linecap:round;stroke-linejoin:round"></path><path d="M182.59,264.21s-11.15,5.06-12.93,6.58l-1.77,1.53" style="fill:none;stroke:#263238;stroke-linecap:round;stroke-linejoin:round"></path><path d="M179,262.18s-11.4,5.57-14.95,8.61" style="fill:none;stroke:#263238;stroke-linecap:round;stroke-linejoin:round"></path><path d="M162.57,269l.34-.37c1.57-1.7,8.11-8.75,8.78-8.75s2.54,1.52,2.54,1.52Z" style="fill:none;stroke:#263238;stroke-linecap:round;stroke-linejoin:round"></path><path d="M156.13,306.75c-14.35,17.54-39.46,46.11-43.48,50.71-5.32,6.08-8.87,14.69-7.86,22.3s8.87,13.17,17,12.92S136,381,136,381l31.68-66.6A55.92,55.92,0,0,1,156.13,306.75Z" style="fill:#92E3A9;stroke:#263238;stroke-linecap:round;stroke-linejoin:round"></path></g></svg>